<?xml version="1.0" encoding="UTF-8"?>
<svg xmlns="http://www.w3.org/2000/svg" xmlns:xlink="http://www.w3.org/1999/xlink" version="1.1" id="Crop_Marks" x="0px" y="0px" viewBox="0 0 512 512" xml:space="preserve">
<path fill="#2C52A3" d="M510.3,193.2c0-15.4-4.8-29.8-13-41.6c-0.4-0.8-0.9-1.6-1.5-2.3c-3.6-4.6-88-112.4-94.9-120.4  c-13.5-15.8-32.9-24.1-56.1-24.1c-14.5,0-28.7,3.8-41.2,10.9c-6.4,3.7-12.4,8.2-17.6,13.5c-0.1-0.1-0.2-0.2-0.2-0.3  C272.4,13.1,253,4.7,229.7,4.7c-24.1,0-46.6,10.4-62.2,28c-0.1-0.1-0.2-0.3-0.3-0.4c-13.5-15.8-32.9-24.1-56.1-24.1  C65.3,8.3,28,45.5,28,91.3c0,1,0.1,1.9,0.3,2.8c-0.3,1.2-0.5,2.5-0.5,3.8v240.8c0,14.1-1.9,24-5.7,30.3c-3.1,5.2-7.7,8.4-14.8,13.2  c-5.9,4-8,11.7-4.8,18.1c9,18.5,57.5,96.8,59.6,100.1c2.7,4.3,7.3,6.8,12.1,6.8c2.2,0,4.4-0.5,6.4-1.5c0.8-0.4,18.9-9.7,37-27.7  c24.6-24.4,37.6-53.5,37.6-84c0-14.1,0-31.6,0-50.3l40.8,57.7c2.7,3.8,7,6,11.7,6H447l0.8,0c9.4,0,31.4,0.1,47.2-15.7  c10.6-10.6,16-25.8,16-45.3C511,299.6,510.3,195.8,510.3,193.2 M344.9,33.3c15.1,0,26.3,4.6,34.4,14.1c3.5,4.1,31.3,39.4,57.2,72.4  c-22.3,0.1-42.4,10.3-55.7,26.2c-18.6-23.1-54.4-67.5-76.5-94.6C314.5,40,329.1,33.3,344.9,33.3 M229.7,33.3  c15.1,0,26.3,4.6,34.4,14.1c1.1,1.3,5,6.1,10.8,13.2c0.1,0.1,0.2,0.3,0.3,0.4c11.2,13.8,29.2,36,47.7,58.9c-1.4-0.1-2.9-0.1-4.4-0.1  c-23.4,0-44.3,11-57.8,28.2c-18.8-23.3-53.3-66.1-74.9-92.7C196.1,41.6,212.3,33.3,229.7,33.3 M126.9,193.3  c0,0.8-0.1,50.8-0.1,104.3c-0.1,0.8-0.1,1.7,0,2.5c0,34.1-0.1,69.3-0.1,94c0,22.8-9.6,44-28.6,63.1c-6.8,6.9-13.8,12.3-19.3,16.1  c-13.5-21.9-34.4-56.2-45-75c4.6-3.8,9-8.3,12.7-14.4c6.7-11.1,9.9-25.4,9.9-45.1V97.9c0-1-0.1-1.9-0.3-2.8c0.3-1.2,0.5-2.5,0.5-3.8  c0-30,24.4-54.5,54.5-54.5c15.1,0,26.3,4.6,34.4,14.1c3.2,3.7,28.6,35.2,55.9,68.9c-0.4,0-0.7,0-1.1,0  C159.8,119.8,126.9,152.8,126.9,193.3 M474.9,371.6c-7.4,7.4-20.1,7.4-27,7.3l-0.9,0H215.2l-46.5-65.8h176.3c0.1,0,0.3,0,0.4,0  c1.2,0,11.8-0.5,22.7-5.5c16.4-7.5,25.5-21.5,25.5-39.2v-38.9c0-7.9-6.4-14.3-14.3-14.3c-7.9,0-14.3,6.4-14.3,14.3v38.9  c0,6.3-2.5,10.2-8.3,13c-5.3,2.6-11.1,3.1-12.1,3.1H155.4c0-48.3,0.1-90.5,0.1-91.3c0-24.7,20.1-44.9,44.9-44.9  c24.7,0,44.9,20.1,44.9,44.9c0,7.9,6.4,14.3,14.3,14.3c7.9,0,14.3-6.4,14.3-14.3c0-24.7,20.1-44.9,44.9-44.9  c24.7,0,44.9,20.1,44.9,44.9c0,7.9,6.4,14.3,14.3,14.3c7.9,0,14.3-6.4,14.3-14.3c0-24.7,20.1-44.9,44.9-44.9  c24.7,0,44.9,20.1,44.9,44.9c0,0,0,0.1,0,0.1c0,1.1,0.7,106,0.7,153.2C482.4,358.1,479.9,366.6,474.9,371.6"></path>
</svg>
